<svg width="192" height="192" viewBox="0 0 192 192" fill="none" xmlns="http://www.w3.org/2000/svg">
<path d="M93.6001 176.6C137.783 176.6 173.6 140.783 173.6 96.6003C173.6 52.4176 137.783 16.6003 93.6001 16.6003C49.4173 16.6003 13.6001 52.4176 13.6001 96.6003C13.6001 140.783 49.4173 176.6 93.6001 176.6Z" fill="#E0F1F2"/>
<path fill-rule="evenodd" clip-rule="evenodd" d="M116.035 22.5649C116.828 22.8051 117.276 23.6425 117.036 24.4354L107.126 57.139L107.9 57.8004C108.2 58.1004 108.7 58.2004 109.1 58.1004L120.7 56.5004C122.9 56.2004 125 57.5004 125.6 59.7004L127.652 66.459L162.756 38.0347C163.4 37.5133 164.345 37.6126 164.866 38.2565C165.387 38.9003 165.288 39.8448 164.644 40.3662L128.593 69.558L129 70.9004C129.1 71.3004 129.4 71.6004 129.8 71.8004L140.4 76.7004C142.4 77.6004 143.4 79.9004 142.8 82.0004L140.46 90.265L179.371 86.906C180.196 86.8347 180.923 87.446 180.995 88.2714C181.066 89.0967 180.455 89.8236 179.629 89.8949L139.588 93.351L139.571 93.4337C139.504 93.7893 139.533 94.1449 139.8 94.5004L146 104.4C147.2 106.3 146.8 108.7 145.2 110.2L137.754 116.715L140.186 117.966C140.923 118.345 141.213 119.25 140.834 119.986C140.455 120.723 139.551 121.013 138.814 120.634L135.899 119.135L135.8 130.7C135.8 132.9 134.2 134.8 132 135.1L120.567 136.874L130.581 153.32C131.012 154.028 130.788 154.951 130.08 155.382C129.373 155.812 128.45 155.588 128.019 154.881L118.415 139.109L113 147.4C112.2 148.7 110.7 149.4 109.2 149.4C108.6 149.4 107.9 149.3 107.4 149L96.7001 144.2C96.3001 144 95.9001 144 95.5001 144.2L95.3 144.29L95.3001 178.6C95.3001 179.429 94.6285 180.1 93.8001 180.1C92.9717 180.1 92.3001 179.429 92.3001 178.6L92.3 145.636L84.8001 149C82.8001 149.9 80.4001 149.2 79.2001 147.4L72.8001 137.6C72.6001 137.3 72.2001 137 71.8001 136.9L70.384 136.68L56.2773 159.587C55.8429 160.292 54.9189 160.512 54.2135 160.078C53.5081 159.643 53.2885 158.719 53.7229 158.014L67.168 136.181L60.2001 135.1C58.0001 134.8 56.4001 132.9 56.4001 130.7L56.3001 119C56.3001 118.6 56.1001 118.2 55.8001 117.9L54.963 117.167L36.2783 126.638C35.5394 127.013 34.6367 126.717 34.2622 125.979C33.8876 125.24 34.183 124.337 34.9219 123.962L52.529 115.038L47.0001 110.2C45.3001 108.7 45.0001 106.3 46.2001 104.4L52.4001 94.6004C52.7001 94.2004 52.7001 93.8004 52.6001 93.3004L52.556 93.148L12.3496 89.0928C11.5253 89.0097 10.9246 88.2741 11.0077 87.4499C11.0908 86.6256 11.8264 86.0248 12.6506 86.108L51.669 90.043L49.4001 82.1004C48.8001 80.0004 49.8001 77.7004 51.8001 76.8004L61.645 72.249L53.4691 65.7765C52.8195 65.2623 52.7098 64.3189 53.224 63.6694C53.7383 63.0198 54.6816 62.9101 55.3312 63.4243L63.527 69.912L66.6001 59.7004C67.2001 57.6004 69.3001 56.2004 71.5001 56.5004L79.664 57.626L72.4752 35.7691C72.2164 34.9821 72.6445 34.1344 73.4314 33.8755C74.2184 33.6167 75.0662 34.0448 75.325 34.8317L82.974 58.083L83.1001 58.1004C83.5001 58.2004 84.0001 58.0004 84.3001 57.8004L93.2001 50.2004C94.8394 48.8504 97.2226 48.8022 98.8253 50.0558L99.0001 50.2004L104.635 55.012L114.165 23.5654C114.405 22.7726 115.242 22.3246 116.035 22.5649ZM131.717 157.901C132.424 157.47 133.347 157.693 133.779 158.4C134.211 159.107 133.988 160.03 133.281 160.462C132.574 160.894 131.65 160.67 131.219 159.963C130.787 159.256 131.01 158.333 131.717 157.901ZM26.1382 130.122C26.5126 130.861 26.217 131.764 25.4781 132.138L17.9781 135.938C17.2391 136.313 16.3365 136.017 15.9621 135.278C15.5876 134.539 15.8832 133.637 16.6222 133.262L24.1222 129.462C24.8612 129.088 25.7637 129.383 26.1382 130.122ZM150.888 123.467L169.488 133.067C170.224 133.447 170.513 134.352 170.133 135.088C169.753 135.825 168.848 136.113 168.112 135.733L149.512 126.133C148.776 125.753 148.487 124.849 148.867 124.112C149.247 123.376 150.152 123.088 150.888 123.467ZM29.5134 126.683C30.2524 126.309 31.155 126.604 31.5294 127.343C31.9039 128.082 31.6084 128.985 30.8694 129.359C30.1305 129.734 29.2279 129.438 28.8534 128.699C28.479 127.96 28.7745 127.058 29.5134 126.683ZM143.608 121.431C143.986 120.694 144.89 120.404 145.627 120.783C146.364 121.161 146.654 122.065 146.276 122.802C145.897 123.539 144.993 123.829 144.256 123.451C143.519 123.072 143.229 122.168 143.608 121.431ZM48.4619 59.9597C48.9757 59.31 49.919 59.1999 50.5688 59.7137C51.2185 60.2276 51.3286 61.1709 50.8148 61.8206C50.3009 62.4704 49.3576 62.5805 48.7079 62.0666C48.0581 61.5528 47.948 60.6095 48.4619 59.9597ZM28.6338 42.3264L45.7338 55.9264C46.3822 56.4421 46.4898 57.3857 45.9741 58.0341C45.4584 58.6825 44.5148 58.79 43.8664 58.2744L26.7664 44.6744C26.1181 44.1587 26.0105 43.2151 26.5261 42.5667C27.0418 41.9183 27.9854 41.8108 28.6338 42.3264ZM21.8524 38.8854C22.3668 38.2361 23.3103 38.1267 23.9596 38.6412C24.6089 39.1556 24.7182 40.0991 24.2038 40.7484C23.6893 41.3977 22.7459 41.507 22.0966 40.9926C21.4473 40.4781 21.3379 39.5347 21.8524 38.8854ZM71.5149 28.0815C72.3014 27.8213 73.1498 28.2481 73.41 29.0346C73.6701 29.8211 73.2434 30.6695 72.4569 30.9297C71.6704 31.1898 70.8219 30.7631 70.5618 29.9766C70.3016 29.1901 70.7284 28.3416 71.5149 28.0815ZM68.1231 13.0261L71.5231 23.2261C71.7851 24.012 71.3604 24.8615 70.5745 25.1234C69.7885 25.3854 68.9391 24.9607 68.6771 24.1747L65.2771 13.9747C65.0151 13.1888 65.4399 12.3394 66.2258 12.0774C67.0117 11.8154 67.8612 12.2402 68.1231 13.0261Z" fill="#7DC6C8"/>
<path fill-rule="evenodd" clip-rule="evenodd" d="M95.5001 48.8005L104.4 56.4005C105 57.0005 105.9 57.2005 106.7 57.1005L118.3 55.5005C119.8 55.3005 121.2 56.2005 121.6 57.6005L125 68.8005C125.2 69.6005 125.8 70.3005 126.6 70.6005L137.2 75.5005C138.5 76.1005 139.2 77.6005 138.8 79.0005L135.6 90.2005C135.4 91.0005 135.5 91.9005 136 92.6005L142.2 102.5C143 103.7 142.8 105.4 141.6 106.4L132.8 114.1C132.2 114.7 131.8 115.5 131.8 116.3L131.7 128C131.7 129.5 130.6 130.7 129.1 130.9L117.5 132.7C116.6 132.8 115.8 133.3 115.4 134.1L109 143.9C108.2 145.1 106.6 145.6 105.3 145L94.6001 140.2C93.8001 139.9 92.9001 139.9 92.2001 140.2L81.5001 145C80.2001 145.6 78.6001 145.1 77.8001 143.9L71.5002 134.1C71.0002 133.4 70.3001 132.9 69.4001 132.8L57.8001 131C56.3001 130.8 55.3001 129.5 55.3001 128.1V116.6C55.3001 115.7 54.9001 114.9 54.3001 114.4L45.5001 106.6C44.4001 105.6 44.2001 104 45.0001 102.7L51.2001 92.8005C51.7001 92.1005 51.8001 91.2005 51.5001 90.4005L48.3001 79.2005C47.9001 77.8005 48.6001 76.2005 49.9001 75.6005L60.5001 70.7005C61.3001 70.3005 61.9001 69.7005 62.1001 68.9005L65.5002 57.6005C65.9002 56.2005 67.3001 55.3005 68.8001 55.5005L80.4002 57.1005C81.2001 57.2005 82.1001 57.0005 82.7001 56.4005L91.6001 48.8005C92.8001 47.9005 94.4002 47.9005 95.5001 48.8005Z" fill="white"/>
<path fill-rule="evenodd" clip-rule="evenodd" d="M96.45 47.6395L105.374 55.2597C105.672 55.5511 106.081 55.6661 106.495 55.6145L118.102 54.0136C120.328 53.7168 122.435 55.0614 123.035 57.1647L126.455 68.4366C126.54 68.7745 126.804 69.0749 127.127 69.1959L137.829 74.1385C139.806 75.051 140.844 77.3075 140.242 79.4125L137.055 90.5642C136.946 91.0012 137.012 91.4364 137.271 91.8043L143.448 101.668C144.69 103.532 144.326 106.081 142.588 107.529L133.861 115.161C133.502 115.52 133.3 115.953 133.3 116.313L133.2 128C133.2 130.253 131.544 132.088 129.33 132.383L117.666 134.191C117.234 134.239 116.898 134.46 116.742 134.771L110.248 144.732C109.038 146.548 106.642 147.272 104.686 146.369L94.0735 141.605C93.6245 141.437 93.1237 141.437 92.8141 141.569L82.1287 146.362C80.1585 147.272 77.7627 146.548 76.5384 144.712L70.2795 134.972C69.9826 134.557 69.6399 134.336 69.1701 134.283L57.6019 132.487C55.3876 132.192 53.8001 130.287 53.8001 128.1V116.6C53.8001 116.173 53.6191 115.785 53.3052 115.523L44.4911 107.71C42.8527 106.221 42.5476 103.824 43.7289 101.904L49.9795 91.9286C50.1804 91.6474 50.2256 91.2738 50.0956 90.9271L46.8579 79.6125C46.2555 77.5043 47.2969 75.1498 49.2707 74.2389L59.8293 69.3588C60.3107 69.1181 60.5704 68.8348 60.6637 68.4682L64.0579 57.1883C64.6656 55.0614 66.7722 53.7168 69.0051 54.0145L80.5862 55.612C81.0192 55.6661 81.4281 55.5511 81.6395 55.3398L90.7001 47.6004C92.4422 46.2939 94.8054 46.2939 96.45 47.6395ZM92.5742 49.9411L83.7133 57.5078C82.8002 58.3886 81.4893 58.7482 80.1952 58.5864L68.6019 56.9873C67.8364 56.8852 67.137 57.3316 66.9365 58.0326L63.5554 69.2642C63.2487 70.491 62.3819 71.4366 61.1295 72.062L50.5287 76.9624C49.913 77.2465 49.5417 78.0859 49.7424 78.7883L52.9277 89.9367C53.3757 91.1922 53.1968 92.5857 52.4714 93.5966L46.2776 103.487C45.8496 104.182 45.9516 104.984 46.4951 105.478L55.2604 113.248C56.2248 114.052 56.8001 115.285 56.8001 116.6V128.1C56.8001 128.814 57.3064 129.421 58.0301 129.518L69.5658 131.31C70.8663 131.454 71.9516 132.152 72.7619 133.289L79.0482 143.068C79.4518 143.674 80.264 143.919 80.8862 143.632L91.6093 138.822C92.6766 138.364 93.9758 138.364 95.2141 138.832L105.929 143.638C106.536 143.919 107.349 143.674 107.744 143.08L114.103 133.344C114.742 132.14 115.953 131.363 117.27 131.218L128.902 129.414C129.676 129.31 130.2 128.729 130.2 127.988L130.3 116.3C130.3 115.105 130.848 113.931 131.812 112.972L140.64 105.248C141.226 104.76 141.345 103.922 140.929 103.297L134.78 93.4723C134.034 92.4291 133.832 91.0902 134.158 89.7883L137.358 78.5883C137.553 77.9068 137.207 77.1557 136.571 76.862L126.015 71.9826C124.791 71.5012 123.862 70.4328 123.565 69.2361L120.158 58.0125C119.963 57.3316 119.264 56.8852 118.505 56.9864L106.886 58.5888C105.611 58.7483 104.3 58.3886 103.387 57.5078L94.5402 49.9532C93.9848 49.5069 93.1546 49.5096 92.5742 49.9411Z" fill="#00827F"/>
<path fill-rule="evenodd" clip-rule="evenodd" d="M93.6001 78.2004C103.873 78.2004 112.2 86.5279 112.2 96.8004C112.2 107.073 103.873 115.4 93.6001 115.4C83.3276 115.4 75.0001 107.073 75.0001 96.8004C75.0001 86.5279 83.3276 78.2004 93.6001 78.2004ZM101.835 89.1926C101.112 88.7869 100.198 89.0436 99.7923 89.7659L92.5614 102.64L87.1608 97.2398C86.575 96.654 85.6252 96.654 85.0395 97.2398C84.4537 97.8256 84.4537 98.7753 85.0395 99.3611L91.8395 106.161C92.5421 106.864 93.7214 106.701 94.208 105.835L102.408 91.235C102.814 90.5127 102.557 89.5983 101.835 89.1926Z" fill="#00827F"/>
</svg>
