<svg width="192" height="192" viewBox="0 0 192 192" fill="none" xmlns="http://www.w3.org/2000/svg">
<path fill-rule="evenodd" clip-rule="evenodd" d="M98.8114 160.317L98.8183 160.461C98.891 161.222 99.5317 161.817 100.311 161.817C101.14 161.817 101.811 161.145 101.811 160.317H104.797L104.804 160.461C104.877 161.222 105.518 161.817 106.297 161.817H141.988C114.615 180.762 78.3676 180.762 50.9944 161.817H94.3114C95.1398 161.817 95.8114 161.145 95.8114 160.317H98.8114ZM114.168 95.0039C116.609 95.6496 118.978 96.537 121.242 97.6529V158.817L114.168 158.821V95.0039ZM78.8264 103.042V158.815H71.7524V113.477C71.7482 112.48 71.4098 111.513 70.7914 110.731C73.2762 107.973 75.9619 105.403 78.8264 103.042ZM36.4094 140.372V148.81C34.6271 146.782 32.9482 144.665 31.3794 142.468C33.1341 141.812 34.8107 141.113 36.4094 140.372ZM156.584 120.358C161.382 122.245 166.449 123.355 171.596 123.647C168.185 132.888 163.096 141.419 156.584 148.81V120.358ZM38.7481 40.6472C64.5573 13.7197 105.549 8.19926 137.563 27.3397C169.576 46.4801 184.115 85.2025 172.611 120.683C167.099 120.458 161.671 119.244 156.588 117.098V75.6059C156.588 73.1206 154.574 71.1059 152.088 71.1059H125.746C123.261 71.1059 121.246 73.1206 121.246 75.6059V94.2859C118.971 93.2529 116.603 92.4405 114.172 91.8599V37.7159C114.17 35.2318 112.157 33.2186 109.672 33.2159H83.3304C80.8451 33.2159 78.8304 35.2306 78.8304 37.7159V99.2909C74.9815 102.199 71.4307 105.481 68.2304 109.091C67.9096 109.017 67.5816 108.979 67.2524 108.977H40.9114C38.4261 108.977 36.4114 110.992 36.4114 113.477L36.4144 137.09C34.2099 138.161 31.9489 139.111 29.6414 139.937C9.16112 108.764 12.9389 67.5746 38.7481 40.6472Z" fill="#E0F1F2"/>
<path fill-rule="evenodd" clip-rule="evenodd" d="M96.4954 98.5308C101.011 97.7035 104.512 98.4029 107.909 99.2145L108.723 99.4107C109.535 99.6077 110.346 99.8045 111.167 99.9818V158.817H106.296C105.468 158.817 104.796 159.488 104.796 160.317H101.811C101.811 159.488 101.14 158.817 100.311 158.817C99.4833 158.817 98.8119 159.488 98.8114 160.316H95.8114C95.8114 159.487 95.1398 158.816 94.3114 158.816H81.8254V104.689C86.1702 101.524 91.1932 99.4153 96.4954 98.5308ZM124.242 104.685C134.265 110.459 142.291 121.28 153.584 126.923V158.817H124.242V104.685ZM68.7544 118.113V158.813H39.4114V145.652C52.8344 138.287 60.7084 127.083 68.7544 118.113ZM65.6304 111.978L63.8644 113.978C57.0604 121.705 50.1054 129.597 39.4114 135.527V113.478C39.4114 112.649 40.0829 111.978 40.9114 111.978H65.6304ZM152.084 74.1058C152.913 74.1058 153.584 74.7774 153.584 75.6058V115.719C147.759 112.797 142.778 108.961 137.878 105.184C133.592 101.689 129.032 98.5449 124.242 95.7808V75.6058C124.242 74.7774 124.914 74.1058 125.742 74.1058H152.084ZM109.668 36.2158C110.497 36.2158 111.168 36.8874 111.168 37.7158V91.2758C106.196 90.5706 101.139 90.7225 96.2174 91.7248C91.1185 92.6613 86.2384 94.5386 81.8264 97.2608V37.7158C81.8264 36.8874 82.4979 36.2158 83.3264 36.2158H109.668Z" fill="white"/>
<path fill-rule="evenodd" clip-rule="evenodd" d="M68.6854 113.058C68.7276 113.194 68.7502 113.335 68.7524 113.477V118.119C60.7114 127.089 52.8324 138.293 39.4094 145.656V138.89C51.4994 132.552 59.1154 123.905 66.1154 115.958C66.9854 114.976 67.8344 114.011 68.6854 113.058ZM124.246 99.2518C128.358 101.76 132.299 104.535 136.046 107.56C141.458 111.733 146.978 115.967 153.584 119.067L153.588 126.923C142.295 121.285 134.269 110.459 124.246 104.685V99.2518ZM96.7764 94.6718C101.516 93.7056 106.391 93.6003 111.168 94.3608V99.9818C110.621 99.8636 110.078 99.7367 109.536 99.6069L108.724 99.4107C105.067 98.5245 101.373 97.6373 96.4964 98.5308C91.1942 99.4152 86.1713 101.524 81.8264 104.689V100.82C86.3232 97.7443 91.417 95.6496 96.7764 94.6718Z" fill="#7DC6C8"/>
<path fill-rule="evenodd" clip-rule="evenodd" d="M175.011 158.817H156.584V120.358C161.382 122.245 166.449 123.355 171.596 123.647C172.706 123.715 173.843 123.753 175.013 123.753C175.842 123.753 176.513 123.081 176.513 122.253C176.513 121.424 175.842 120.753 175.013 120.753C174.191 120.753 173.397 120.719 172.606 120.683C167.094 120.458 161.667 119.244 156.584 117.098V75.6058C156.584 73.1205 154.57 71.1058 152.084 71.1058H125.742C123.257 71.1058 121.242 73.1205 121.242 75.6058V94.2858C118.967 93.2528 116.599 92.4404 114.168 91.8598V37.7158C114.166 35.2317 112.153 33.2186 109.668 33.2158H83.3264C80.8411 33.2158 78.8264 35.2305 78.8264 37.7158V99.2868C74.9775 102.195 71.4267 105.477 68.2264 109.087C67.9056 109.013 67.5776 108.975 67.2484 108.973H40.9114C38.4261 108.973 36.4114 110.988 36.4114 113.473V137.086C34.2069 138.157 31.9459 139.107 29.6384 139.933C25.2784 141.482 20.7959 142.662 16.2384 143.461C15.4726 143.597 14.9374 144.295 15.0059 145.07C15.0743 145.845 15.7236 146.439 16.5014 146.438C16.5913 146.438 16.681 146.43 16.7694 146.414C21.7508 145.54 26.643 144.218 31.3864 142.464C33.1404 141.808 34.8171 141.108 36.4164 140.364V158.813H24.0164C23.188 158.813 22.5164 159.484 22.5164 160.313C22.5164 161.141 23.188 161.813 24.0164 161.813H51.0094H94.3264C95.1548 161.813 95.8264 161.141 95.8264 160.313C95.8264 159.484 95.1548 158.813 94.3264 158.813H81.8264V100.813C86.3232 97.7373 91.4169 95.6426 96.7764 94.6648C101.516 93.6987 106.391 93.5933 111.168 94.3538V158.81H106.297C105.469 158.81 104.797 159.481 104.797 160.31C104.797 161.138 105.469 161.81 106.297 161.81H175.011C175.84 161.81 176.511 161.138 176.511 160.31C176.511 159.481 175.84 158.81 175.011 158.81V158.817ZM125.742 74.1058H152.084C152.913 74.1058 153.584 74.7774 153.584 75.6058V115.719C147.759 112.797 142.776 108.961 137.878 105.184C133.592 101.69 129.032 98.547 124.242 95.7838V75.6058C124.242 74.7774 124.914 74.1058 125.742 74.1058ZM124.242 104.685V99.2528C128.353 101.761 132.295 104.536 136.042 107.561C141.454 111.734 146.974 115.971 153.58 119.068V158.818H124.242V104.685ZM121.242 97.6488V158.817H114.168V94.9998C116.609 95.6468 118.978 96.5355 121.242 97.6528V97.6488ZM83.3264 36.2158H109.668C110.497 36.2158 111.168 36.8874 111.168 37.7158V91.2758C106.196 90.5706 101.139 90.7225 96.2174 91.7248C91.1185 92.6613 86.2384 94.5386 81.8264 97.2608V37.7158C81.8264 36.8874 82.498 36.2158 83.3264 36.2158ZM78.8264 103.042V158.816H71.7524V113.477C71.7482 112.48 71.4098 111.513 70.7914 110.731C73.2762 107.973 75.9619 105.403 78.8264 103.042ZM40.9114 111.977H65.6304C65.0424 112.643 64.4537 113.31 63.8644 113.977C57.0644 121.704 50.1054 129.596 39.4094 135.525V113.477C39.4094 113.079 39.5677 112.697 39.8495 112.415C40.1312 112.134 40.5132 111.976 40.9114 111.977ZM100.311 158.817C101.14 158.817 101.811 159.488 101.811 160.317L101.805 160.461C101.732 161.222 101.091 161.817 100.311 161.817C99.483 161.817 98.8114 161.145 98.8114 160.317L98.8183 160.172C98.891 159.412 99.5317 158.817 100.311 158.817ZM17.9964 158.817C18.8248 158.817 19.4964 159.488 19.4964 160.317C19.4964 161.145 18.8248 161.817 17.9964 161.817C17.168 161.817 16.4964 161.145 16.4964 160.317C16.4964 159.488 17.168 158.817 17.9964 158.817ZM68.6874 113.06C68.7296 113.196 68.7521 113.337 68.7544 113.479V158.817H39.4114V138.892C51.5014 132.554 59.1204 123.907 66.1174 115.96C66.9834 114.976 67.8364 114.011 68.6874 113.06Z" fill="#00827F"/>
</svg>
