<svg width="192" height="192" viewBox="0 0 192 192" fill="none" xmlns="http://www.w3.org/2000/svg">
<path d="M96 176.135C140.183 176.135 176 140.318 176 96.1353C176 51.9525 140.183 16.1353 96 16.1353C51.8172 16.1353 16 51.9525 16 96.1353C16 140.318 51.8172 176.135 96 176.135Z" fill="#E0F1F2"/>
<path d="M31.9 72.1053C32.7284 72.1053 33.4 71.4337 33.4 70.6053C33.4 69.7768 32.7284 69.1053 31.9 69.1053C31.0716 69.1053 30.4 69.7768 30.4 70.6053C30.4 71.4337 31.0716 72.1053 31.9 72.1053Z" fill="#7DC6C8"/>
<path d="M37.9 72.1053C38.7284 72.1053 39.4 71.4337 39.4 70.6053C39.4 69.7768 38.7284 69.1053 37.9 69.1053C37.0716 69.1053 36.4 69.7768 36.4 70.6053C36.4 71.4337 37.0716 72.1053 37.9 72.1053Z" fill="#7DC6C8"/>
<path d="M34.9 69.1053C35.7284 69.1053 36.4 68.4337 36.4 67.6053C36.4 66.7768 35.7284 66.1053 34.9 66.1053C34.0716 66.1053 33.4 66.7768 33.4 67.6053C33.4 68.4337 34.0716 69.1053 34.9 69.1053Z" fill="#7DC6C8"/>
<path d="M34.9 75.1053C35.7284 75.1053 36.4 74.4337 36.4 73.6053C36.4 72.7768 35.7284 72.1053 34.9 72.1053C34.0716 72.1053 33.4 72.7768 33.4 73.6053C33.4 74.4337 34.0716 75.1053 34.9 75.1053Z" fill="#7DC6C8"/>
<path d="M158.78 115.695C159.608 115.695 160.28 115.024 160.28 114.195C160.28 113.367 159.608 112.695 158.78 112.695C157.952 112.695 157.28 113.367 157.28 114.195C157.28 115.024 157.952 115.695 158.78 115.695Z" fill="#7DC6C8"/>
<path d="M164.78 115.695C165.608 115.695 166.28 115.024 166.28 114.195C166.28 113.367 165.608 112.695 164.78 112.695C163.952 112.695 163.28 113.367 163.28 114.195C163.28 115.024 163.952 115.695 164.78 115.695Z" fill="#7DC6C8"/>
<path d="M161.78 112.695C162.608 112.695 163.28 112.024 163.28 111.195C163.28 110.367 162.608 109.695 161.78 109.695C160.952 109.695 160.28 110.367 160.28 111.195C160.28 112.024 160.952 112.695 161.78 112.695Z" fill="#7DC6C8"/>
<path d="M161.78 118.695C162.608 118.695 163.28 118.024 163.28 117.195C163.28 116.367 162.608 115.695 161.78 115.695C160.952 115.695 160.28 116.367 160.28 117.195C160.28 118.024 160.952 118.695 161.78 118.695Z" fill="#7DC6C8"/>
<path d="M138.32 23.9953H51.47C48.5539 23.9953 46.19 26.3592 46.19 29.2753V162.995C46.19 165.911 48.5539 168.275 51.47 168.275H138.32C141.236 168.275 143.6 165.911 143.6 162.995V29.2753C143.6 26.3592 141.236 23.9953 138.32 23.9953Z" fill="white"/>
<path d="M142.1 29.2754C142.1 27.1878 140.407 25.4951 138.32 25.4951H51.4702C49.3826 25.4951 47.6899 27.1878 47.6899 29.2754V162.995C47.6899 165.083 49.3826 166.775 51.4702 166.775H138.32C140.407 166.775 142.1 165.083 142.1 162.995V29.2754ZM145.1 162.995C145.1 166.74 142.064 169.775 138.32 169.775H51.4702C47.7257 169.775 44.6899 166.74 44.6899 162.995V29.2754C44.6899 25.5309 47.7257 22.4951 51.4702 22.4951H138.32C142.064 22.4951 145.1 25.5309 145.1 29.2754V162.995Z" fill="#00827F"/>
<path d="M142.1 29.2754C142.1 27.1878 140.407 25.4951 138.32 25.4951H51.4702C49.3826 25.4951 47.6899 27.1878 47.6899 29.2754V162.995C47.6899 165.083 49.3826 166.775 51.4702 166.775H138.32C140.407 166.775 142.1 165.083 142.1 162.995V29.2754ZM145.1 162.995C145.1 166.74 142.064 169.775 138.32 169.775H51.4702C47.7257 169.775 44.6899 166.74 44.6899 162.995V29.2754C44.6899 25.5309 47.7257 22.4951 51.4702 22.4951H138.32C142.064 22.4951 145.1 25.5309 145.1 29.2754V162.995Z" fill="#00827F"/>
<path d="M120.081 94.0595C131.192 80.1315 128.908 59.8337 114.98 48.7231C101.052 37.6125 80.7538 39.8964 69.6432 53.8244C58.5326 67.7524 60.8165 88.0502 74.7445 99.1609C88.6725 110.271 108.97 107.988 120.081 94.0595Z" fill="white"/>
<path d="M104.215 125.887C104.473 125.1 105.321 124.672 106.108 124.93C106.895 125.189 107.324 126.036 107.066 126.823L98.585 152.643C98.4338 153.103 98.0691 153.462 97.6065 153.607C97.144 153.751 96.6402 153.663 96.254 153.371L77.6886 139.302L67.0821 153.532C66.5869 154.195 65.6475 154.332 64.9835 153.837C64.3194 153.342 64.1827 152.403 64.6778 151.739L76.1876 136.298L76.2823 136.183C76.5162 135.927 76.8334 135.758 77.1798 135.709C77.5755 135.653 77.9774 135.758 78.296 135.999L96.3897 149.709L104.215 125.887Z" fill="#00827F"/>
<path d="M134.86 69.4353C132.37 47.3453 112.45 31.4553 90.36 33.9353C68.27 36.4253 52.38 56.3453 54.86 78.4353C57.35 100.525 77.27 116.415 99.36 113.935C121.45 111.445 137.34 91.5253 134.86 69.4353ZM98.46 105.995C80.75 107.985 64.79 95.2553 62.79 77.5453C60.8 59.8353 73.53 43.8753 91.24 41.8753C108.95 39.8853 124.91 52.6153 126.91 70.3253C128.9 88.0353 116.17 103.995 98.46 105.995Z" fill="#E0F1F2"/>
<path d="M90.1929 32.445C113.106 29.8727 133.767 46.3543 136.35 69.2672L136.351 69.2682C138.923 92.181 122.441 112.843 99.5278 115.425L99.5269 115.426C76.6141 117.998 55.9524 101.516 53.3696 78.6032C50.7975 55.6904 67.2801 35.0278 90.1929 32.445ZM133.245 68.611C130.372 47.8626 111.462 33.0761 90.5269 35.4264L90.5259 35.4254C69.2599 37.8237 53.9635 57.0018 56.3511 78.2682C58.7487 99.5345 77.9254 114.832 99.1919 112.445L100.184 112.32C120.932 109.448 135.72 90.5378 133.37 69.6032L133.245 68.611ZM91.0728 40.3844C109.316 38.3347 125.785 51.2116 128.292 69.2916L128.401 70.1569C130.483 88.6899 117.161 105.393 98.6284 107.486C80.0954 109.568 63.3922 96.2462 61.2993 77.7135C59.217 59.1805 72.5401 42.4773 91.0728 40.3844ZM125.321 69.7057C123.037 53.2306 108.031 41.4972 91.4077 43.3649C74.5211 45.2722 62.384 60.4903 64.2808 77.3766L64.3794 78.1647C66.6631 94.6397 81.6687 106.372 98.2915 104.505C115.178 102.597 127.316 87.3803 125.419 70.4938L125.321 69.7057Z" fill="#00827F"/>
<path d="M75.8057 108.541L64.1446 123.162L59.4541 119.42L71.1153 104.799L75.8057 108.541Z" fill="#00827F"/>
<path d="M32.3775 149.017L57.9766 116.926L66.646 123.842L41.047 155.933C39.2635 158.168 36.0031 158.535 33.7673 156.752L33.1888 156.29C30.953 154.507 30.5862 151.246 32.3697 149.01L32.3775 149.017Z" fill="#E0F1F2"/>
<path d="M31.1969 148.075C31.2318 148.032 31.2694 147.99 31.308 147.952L56.8041 115.99C57.3207 115.343 58.2646 115.237 58.9121 115.753L67.5814 122.669C68.2289 123.185 68.3349 124.129 67.8186 124.777L42.2191 156.868C39.9189 159.751 35.7151 160.224 32.8318 157.924L32.2531 157.463C29.3701 155.162 28.897 150.959 31.1969 148.075ZM34.7026 155.579C36.2907 156.846 38.6069 156.585 39.8739 154.997L64.538 124.079L58.2139 119.034L33.5497 149.952C33.5228 149.986 33.4937 150.017 33.4646 150.048C32.2876 151.632 32.5696 153.877 34.124 155.117L34.7026 155.579Z" fill="#00827F"/>
<path d="M136.79 120.905C146.273 120.905 153.96 113.218 153.96 103.735C153.96 94.2526 146.273 86.5653 136.79 86.5653C127.307 86.5653 119.62 94.2526 119.62 103.735C119.62 113.218 127.307 120.905 136.79 120.905Z" fill="white"/>
<path d="M152.46 103.735C152.46 95.0809 145.444 88.0653 136.79 88.0653C128.136 88.0653 121.12 95.081 121.12 103.735C121.12 112.389 128.136 119.405 136.79 119.405C145.444 119.405 152.46 112.39 152.46 103.735ZM155.46 103.735C155.46 114.046 147.101 122.405 136.79 122.405C126.479 122.405 118.12 114.046 118.12 103.735C118.12 93.4241 126.479 85.0653 136.79 85.0653C147.101 85.0653 155.46 93.4241 155.46 103.735Z" fill="#00827F"/>
<path d="M136.79 113.625C142.252 113.625 146.68 109.197 146.68 103.735C146.68 98.2732 142.252 93.8453 136.79 93.8453C131.328 93.8453 126.9 98.2732 126.9 103.735C126.9 109.197 131.328 113.625 136.79 113.625Z" fill="white"/>
<path d="M145.18 103.735C145.18 99.1014 141.423 95.3453 136.79 95.3453C132.156 95.3455 128.4 99.1015 128.4 103.735C128.4 108.368 132.156 112.125 136.79 112.126C141.423 112.126 145.18 108.369 145.18 103.735ZM148.18 103.735C148.18 110.025 143.08 115.126 136.79 115.126C130.499 115.125 125.4 110.025 125.4 103.735C125.4 97.4447 130.499 92.3455 136.79 92.3453C143.08 92.3453 148.18 97.4446 148.18 103.735Z" fill="#00827F"/>
<path d="M136.79 106.625C138.386 106.625 139.68 105.331 139.68 103.735C139.68 102.139 138.386 100.845 136.79 100.845C135.194 100.845 133.9 102.139 133.9 103.735C133.9 105.331 135.194 106.625 136.79 106.625Z" fill="white"/>
<path d="M138.18 103.735C138.18 102.967 137.557 102.345 136.79 102.345C136.022 102.345 135.4 102.968 135.4 103.735C135.4 104.502 136.022 105.125 136.79 105.126C137.557 105.126 138.18 104.503 138.18 103.735ZM141.18 103.735C141.18 106.159 139.214 108.126 136.79 108.126C134.365 108.125 132.4 106.159 132.4 103.735C132.4 101.311 134.365 99.3455 136.79 99.3453C139.214 99.3453 141.18 101.311 141.18 103.735Z" fill="#00827F"/>
<path d="M100.33 50.6555H88.1V90.5755H100.33V50.6555Z" fill="#E0F1F2"/>
<path d="M112.59 61.1955H100.36V90.5655H112.59V61.1955Z" fill="#E0F1F2"/>
<path d="M88.08 67.1756H75.85V90.5756H88.08V67.1756Z" fill="#E0F1F2"/>
<path d="M100.33 49.1555C101.159 49.1558 101.83 49.8273 101.83 50.6555V90.5755C101.83 91.4037 101.159 92.0752 100.33 92.0755H88.1C87.2715 92.0755 86.6 91.4039 86.6 90.5755V50.6555C86.6 49.8271 87.2715 49.1555 88.1 49.1555H100.33ZM89.6 89.0755H98.8304V52.1555H89.6V89.0755Z" fill="#00827F"/>
<path d="M112.59 59.6955C113.419 59.6958 114.09 60.3673 114.09 61.1955V90.5657C114.09 91.3939 113.419 92.0654 112.59 92.0657H100.36C99.5316 92.0657 98.86 91.394 98.86 90.5657V61.1955C98.86 60.3671 99.5315 59.6955 100.36 59.6955H112.59ZM101.86 89.0657H111.09V62.6955H101.86V89.0657Z" fill="#00827F"/>
<path d="M88.0804 65.6756C88.9086 65.6758 89.5804 66.3473 89.5804 67.1756V90.5759C89.5802 91.404 88.9085 92.0757 88.0804 92.0759H75.85C75.0217 92.0759 74.3502 91.4042 74.35 90.5759V67.1756C74.35 66.3471 75.0215 65.6756 75.85 65.6756H88.0804ZM77.35 89.0759H86.5804V68.6756H77.35V89.0759Z" fill="#00827F"/>
<path d="M114 89.0655C114.829 89.0657 115.5 89.7372 115.5 90.5655C115.5 91.3939 114.829 92.0654 114 92.0655H74.43C73.6015 92.0655 72.93 91.394 72.93 90.5655C72.93 89.7371 73.6015 89.0655 74.43 89.0655H114Z" fill="#00827F"/>
<path d="M139.79 130.965V108.445C139.79 106.935 138.57 105.715 137.06 105.715H136.2C134.69 105.715 133.47 106.935 133.47 108.445V136.845L124.61 125.375C123.64 124.125 121.82 123.955 120.64 124.995L120.44 125.165C119.38 126.105 119.2 127.685 120.04 128.835C121.75 131.175 124.38 135.055 125.06 137.665C126.09 141.615 127.98 152.005 134.16 154.755C140.34 157.505 151.22 156.725 154.37 152.035C156.75 148.505 159.64 142.085 159.86 130.165C159.88 128.935 158.83 126.855 157.83 126.135C156.43 125.125 155.47 125.445 153.97 125.405C152.94 122.555 150.38 121.605 146.81 122.905C144.32 120.495 142.56 120.045 139.78 121.455V130.955L139.79 130.965Z" fill="#E0F1F2"/>
<path d="M138.29 108.446C138.29 107.764 137.741 107.215 137.06 107.215H136.2C135.519 107.215 134.97 107.764 134.97 108.446V136.845C134.97 137.487 134.562 138.058 133.954 138.265C133.347 138.472 132.675 138.27 132.282 137.762L123.425 126.295L123.338 126.194C122.883 125.72 122.129 125.683 121.632 126.12C121.625 126.126 121.618 126.132 121.612 126.138L121.43 126.291C120.947 126.723 120.873 127.433 121.251 127.95L121.943 128.912C122.669 129.939 123.481 131.144 124.222 132.375C125.191 133.986 126.115 135.762 126.512 137.286L126.953 139.073C127.438 141.067 128.076 143.614 129.071 146.103C130.415 149.463 132.244 152.261 134.77 153.385C137.562 154.628 141.548 155.109 145.234 154.695C149.004 154.27 151.932 152.975 153.125 151.198L153.126 151.196C155.324 147.936 158.145 141.806 158.361 130.137C158.363 129.872 158.224 129.302 157.888 128.634C157.55 127.964 157.171 127.51 156.953 127.353L156.952 127.352C156.043 126.696 155.824 126.955 153.93 126.904C153.313 126.888 152.77 126.495 152.56 125.915C152.17 124.838 151.564 124.268 150.841 124.012C150.066 123.737 148.912 123.736 147.323 124.315C146.784 124.511 146.179 124.382 145.767 123.983C144.586 122.84 143.772 122.362 143.087 122.214C142.61 122.111 142.056 122.139 141.29 122.423V130.965C141.29 131.572 140.925 132.119 140.364 132.351C139.804 132.583 139.159 132.454 138.73 132.026L138.719 132.016C138.438 131.735 138.28 131.353 138.279 130.955V121.455C138.279 121.404 138.285 121.353 138.29 121.302V108.446ZM141.29 119.302C142.094 119.126 142.899 119.104 143.721 119.281C144.975 119.553 146.089 120.256 147.18 121.21C148.843 120.739 150.436 120.685 151.844 121.185C153.209 121.669 154.241 122.619 154.928 123.885C155.964 123.853 157.282 123.89 158.707 124.918C159.489 125.481 160.134 126.426 160.567 127.283C160.998 128.14 161.375 129.223 161.36 130.19V130.193C161.135 142.361 158.176 149.07 155.614 152.87L155.615 152.871C153.658 155.785 149.571 157.225 145.569 157.676C141.482 158.136 136.937 157.632 133.55 156.125C129.895 154.499 127.69 150.727 126.286 147.217C124.866 143.666 124.097 139.916 123.609 138.043C123.326 136.958 122.594 135.489 121.651 133.922C120.726 132.386 119.67 130.871 118.829 129.72C117.529 127.939 117.812 125.491 119.445 124.043L119.469 124.022L119.668 123.852C121.441 122.308 124.126 122.515 125.651 124.279L125.795 124.455L125.797 124.458L131.97 132.448V108.446C131.97 106.107 133.862 104.215 136.2 104.215H137.06C139.398 104.215 141.29 106.107 141.29 108.446V119.302Z" fill="#00827F"/>
<path d="M146.926 121.42C147.752 121.484 148.369 122.205 148.305 123.031L147.645 131.512C147.581 132.337 146.859 132.955 146.034 132.891C145.208 132.826 144.591 132.104 144.655 131.278L145.314 122.799C145.378 121.973 146.1 121.356 146.926 121.42Z" fill="#00827F"/>
<path d="M154.087 123.91C154.913 123.975 155.53 124.696 155.465 125.522L154.805 133.932C154.74 134.758 154.019 135.375 153.193 135.31C152.367 135.245 151.75 134.524 151.815 133.698L152.475 125.288C152.54 124.462 153.261 123.845 154.087 123.91Z" fill="#00827F"/>
<path d="M65.88 158.015C68.8513 158.015 71.26 155.606 71.26 152.635C71.26 149.664 68.8513 147.255 65.88 147.255C62.9087 147.255 60.5 149.664 60.5 152.635C60.5 155.606 62.9087 158.015 65.88 158.015Z" fill="#E0F1F2"/>
<path d="M69.7597 152.635C69.7597 150.492 68.0227 148.755 65.8798 148.755C63.7371 148.755 62 150.492 62 152.635C62 154.778 63.737 156.515 65.8798 156.515C68.0227 156.515 69.7597 154.778 69.7597 152.635ZM72.7597 152.635C72.7597 156.434 69.6796 159.515 65.8798 159.515C62.0802 159.515 59 156.434 59 152.635C59 148.835 62.0802 145.755 65.8798 145.755C69.6795 145.755 72.7597 148.835 72.7597 152.635Z" fill="#00827F"/>
<path d="M77.39 142.575C80.3613 142.575 82.77 140.166 82.77 137.195C82.77 134.224 80.3613 131.815 77.39 131.815C74.4187 131.815 72.01 134.224 72.01 137.195C72.01 140.166 74.4187 142.575 77.39 142.575Z" fill="#E0F1F2"/>
<path d="M81.2697 137.195C81.2697 135.052 79.5327 133.315 77.3899 133.315C75.2471 133.315 73.51 135.052 73.51 137.195C73.51 139.338 75.247 141.075 77.3899 141.075C79.5327 141.075 81.2697 139.338 81.2697 137.195ZM84.2697 137.195C84.2697 140.994 81.1896 144.075 77.3899 144.075C73.5902 144.075 70.51 140.994 70.51 137.195C70.51 133.395 73.5902 130.315 77.3899 130.315C81.1895 130.315 84.2697 133.395 84.2697 137.195Z" fill="#00827F"/>
<path d="M97.16 157.555C100.131 157.555 102.54 155.146 102.54 152.175C102.54 149.204 100.131 146.795 97.16 146.795C94.1887 146.795 91.78 149.204 91.78 152.175C91.78 155.146 94.1887 157.555 97.16 157.555Z" fill="#E0F1F2"/>
<path d="M101.04 152.175C101.04 150.032 99.3027 148.295 97.1599 148.295C95.0171 148.295 93.28 150.032 93.28 152.175C93.28 154.318 95.017 156.055 97.1599 156.055C99.3027 156.055 101.04 154.318 101.04 152.175ZM104.04 152.175C104.04 155.974 100.96 159.055 97.1599 159.055C93.3602 159.055 90.28 155.974 90.28 152.175C90.28 148.375 93.3602 145.295 97.1599 145.295C100.96 145.295 104.04 148.375 104.04 152.175Z" fill="#00827F"/>
<path d="M105.64 131.735C108.611 131.735 111.02 129.326 111.02 126.355C111.02 123.384 108.611 120.975 105.64 120.975C102.669 120.975 100.26 123.384 100.26 126.355C100.26 129.326 102.669 131.735 105.64 131.735Z" fill="#E0F1F2"/>
<path d="M109.52 126.355C109.52 124.212 107.783 122.475 105.64 122.475C103.497 122.475 101.76 124.212 101.76 126.355C101.76 128.498 103.497 130.235 105.64 130.235C107.783 130.235 109.52 128.498 109.52 126.355ZM112.52 126.355C112.52 130.154 109.44 133.235 105.64 133.235C101.84 133.235 98.76 130.154 98.76 126.355C98.76 122.555 101.84 119.475 105.64 119.475C109.44 119.475 112.52 122.555 112.52 126.355Z" fill="#00827F"/>
</svg>
